<?xml version="1.0" encoding="utf-8"?>
<!-- Generator: Adobe Illustrator 27.9.0, SVG Export Plug-In . SVG Version: 6.00 Build 0)  -->
<svg version="1.1" id="Layer_1" xmlns="http://www.w3.org/2000/svg" xmlns:xlink="http://www.w3.org/1999/xlink" x="0px" y="0px"
	 viewBox="0 0 500 500" style="enable-background:new 0 0 500 500;" xml:space="preserve">
<style type="text/css">
	.st0{fill:#AACCFF;}
</style>
<path class="st0" d="M250,25C125.8,25,25,125.8,25,250s100.8,225,225,225s225-100.8,225-225S374.2,25,250,25z M132.1,209.8h59.4
	c2.5,0,4.5-2,4.5-4.5v-94.7c0-2.5,2-4.5,4.5-4.5h99c2.5,0,4.5,2,4.5,4.5v94.7c0,2.5,2,4.5,4.5,4.5h59.4c3.9,0,5.9,4.7,3.3,7.6
	L253.3,343.5c-1.8,1.9-4.8,1.9-6.6,0L128.8,217.4C126.2,214.5,128.2,209.8,132.1,209.8z M385.6,389.5c0,2.5-2,4.5-4.5,4.5H118.9
	c-2.5,0-4.5-2-4.5-4.5v-54c0-2.5,2-4.5,4.5-4.5h27c2.5,0,4.5,2,4.5,4.5v18c0,2.5,2,4.5,4.5,4.5h190.3c2.5,0,4.5-2,4.5-4.5v-18
	c0-2.5,2-4.5,4.5-4.5h27c2.5,0,4.5,2,4.5,4.5V389.5z"/>
</svg>
